<svg width="64" height="64" viewBox="0 0 64 64" fill="none" xmlns="http://www.w3.org/2000/svg">
<path d="M32 64C14.326 64 0 49.674 0 32C0 14.326 14.326 0 32 0C49.674 0 64 14.326 64 32C64 49.674 49.674 64 32 64ZM53.978 45.342V19.996L31.97 7.32L31.94 7.336L10.008 20.01V45.35L31.958 57.994L31.96 57.996L53.976 45.344L53.978 45.342ZM44.238 41.29L40.484 39.138L32.108 44C32.0837 44.0142 32.0561 44.0218 32.028 44.0218C31.9999 44.0218 31.9723 44.0142 31.948 44L22.338 38.43L22.334 28.74L13.892 23.9L31.888 13.35C31.8952 13.3456 31.9035 13.3432 31.912 13.3432C31.9205 13.3432 31.9288 13.3456 31.936 13.35L48.65 22.906L45.694 24.616L31.944 16.704L19.75 23.862L23.98 26.292L31.952 21.656L31.956 21.652L41.696 27.222L41.692 36.442L49.994 41.196L49.992 41.336L31.96 51.864L15.244 42.32L18.17 40.606L31.932 48.5L44.238 41.288V41.29ZM34.61 30.29V30.222L34.608 30.178L34.606 30.154L34.602 30.104V30.088L34.596 30.034V30.02L34.588 29.964V29.954L34.58 29.896V29.888L34.57 29.828L34.568 29.824L34.556 29.764L34.554 29.758L34.54 29.698V29.694C34.5362 29.6738 34.5315 29.6538 34.526 29.634V29.63L34.508 29.57V29.568L34.49 29.504C34.4793 29.4632 34.466 29.4231 34.45 29.384L34.426 29.322C34.4187 29.3017 34.4107 29.2817 34.402 29.262L34.376 29.202L34.35 29.146L34.322 29.086L34.294 29.03L34.262 28.974C34.2511 28.9562 34.2404 28.9382 34.23 28.92V28.918C34.2197 28.9005 34.209 28.8831 34.198 28.866L34.196 28.864C34.1852 28.847 34.1739 28.8303 34.162 28.814V28.81L34.128 28.762C34.128 28.762 34.128 28.758 34.124 28.758L34.09 28.71L34.086 28.706C34.074 28.69 34.066 28.674 34.052 28.658L34.05 28.654L34.012 28.608L34.008 28.604L33.972 28.56L33.968 28.556L33.928 28.514C33.928 28.512 33.928 28.51 33.924 28.508L33.886 28.466C33.8843 28.4643 33.883 28.4622 33.882 28.46L33.844 28.42C33.8287 28.4047 33.8133 28.3893 33.798 28.374L33.792 28.368L33.752 28.328L33.748 28.324L33.708 28.288L33.7 28.282L33.658 28.244L33.652 28.238C33.6384 28.2262 33.6244 28.2149 33.61 28.204L33.604 28.2L33.56 28.164L33.554 28.16L33.508 28.126L33.502 28.122L33.456 28.088L33.45 28.084L33.404 28.052L33.398 28.05L33.35 28.018L33.346 28.014C33.3297 28.0035 33.313 27.9934 33.296 27.984H33.292L33.24 27.952H33.236L33.182 27.92H33.18C32.5417 27.6504 31.8238 27.6382 31.1766 27.8858C30.5295 28.1334 30.0031 28.6218 29.7078 29.2486C29.4125 29.8754 29.371 30.5922 29.5921 31.2489C29.8132 31.9056 30.2797 32.4514 30.894 32.772L29.734 38.076H34.122L32.952 32.776C33.956 32.356 34.61 31.376 34.61 30.29Z" fill="black"/>
</svg>
