<svg width="64" height="64" viewBox="0 0 64 64" fill="none" xmlns="http://www.w3.org/2000/svg">
<path d="M42.6667 42.6668L48.0001 48.0002L58.6667 37.3335" stroke="black" stroke-width="2" stroke-linecap="round" stroke-linejoin="round"/>
<path d="M56 26.6667V21.3334C55.999 20.3981 55.7522 19.4796 55.2841 18.6698C54.8161 17.8601 54.1433 17.1877 53.3333 16.7201L34.6667 6.0534C33.8559 5.5853 32.9362 5.33887 32 5.33887C31.0638 5.33887 30.1441 5.5853 29.3333 6.0534L10.6667 16.7201C9.8567 17.1877 9.18395 17.8601 8.7159 18.6698C8.24785 19.4796 8.00096 20.3981 8 21.3334V42.6667C8.00096 43.602 8.24785 44.5206 8.7159 45.3303C9.18395 46.14 9.8567 46.8124 10.6667 47.2801L29.3333 57.9467C30.1441 58.4148 31.0638 58.6613 32 58.6613C32.9362 58.6613 33.8559 58.4148 34.6667 57.9467L40 54.9067M44 25.0667L20.1333 11.3067M8.77333 18.6667L32 32.0001M32 32.0001L55.2267 18.6667M32 32.0001V58.6667" stroke="black" stroke-width="2" stroke-linecap="round" stroke-linejoin="round"/>
</svg>
