<svg width="64" height="64" viewBox="0 0 64 64" fill="none" xmlns="http://www.w3.org/2000/svg">
<path d="M48 57.18L42.82 52L40 54.82L48 62.82L62 48.82L59.18 46L48 57.18ZM30 50H34V54H30V50ZM18 50H22V54H18V50ZM42 40H46V44H42V40ZM30 40H34V44H30V40ZM18 40H22V44H18V40ZM42 30H46V34H42V30ZM30 30H34V34H30V30ZM18 30H22V34H18V30ZM18 18H46V24H18V18Z" fill="black"/>
<path d="M34 60H12.01C10.9468 59.9989 9.92746 59.5761 9.17567 58.8243C8.42388 58.0725 8.00106 57.0532 8 55.99V7.992C8.00106 6.93358 8.42198 5.91881 9.1704 5.1704C9.91882 4.42198 10.9336 4.00106 11.992 4H52.008C53.0664 4.00106 54.0812 4.42198 54.8296 5.1704C55.578 5.91881 55.9989 6.93358 56 7.992V36H52V8H12V56H34V60Z" fill="black"/>
</svg>
