<svg width="64" height="64" viewBox="0 0 64 64" fill="none" xmlns="http://www.w3.org/2000/svg">
<path d="M2.84612 56H36.7059C38.2626 56 39.5294 54.654 39.5294 53V15C39.5294 14.954 39.5106 14.914 39.5049 14.87C39.4997 14.8281 39.4915 14.7866 39.4805 14.746C39.4436 14.5755 39.3643 14.4187 39.2508 14.292L26.0762 0.294C25.927 0.144158 25.7362 0.0494699 25.5322 0.024C25.4927 0.02 25.4551 0 25.4118 0H2.83482C1.27247 0 0 1.346 0 3V53C0 54.654 1.27624 56 2.84612 56ZM26.3529 3.414L36.3162 14H27.2941C27.0445 14 26.8051 13.8946 26.6286 13.7071C26.4521 13.5196 26.3529 13.2652 26.3529 13V3.414ZM1.88235 3C1.88235 2.448 2.30965 2 2.83482 2H24.4706V13C24.4706 14.654 25.7374 16 27.2941 16H37.6471V53C37.6471 53.2652 37.5479 53.5196 37.3714 53.7071C37.1949 53.8946 36.9555 54 36.7059 54H2.84612C2.72104 54.0016 2.59688 53.977 2.48075 53.9276C2.36462 53.8782 2.25879 53.805 2.16929 53.7121C2.0798 53.6192 2.00839 53.5086 1.95916 53.3864C1.90993 53.2642 1.88383 53.1329 1.88235 53V3Z" fill="black"/>
<path d="M8.47047 24H31.0587C31.3083 24 31.5477 23.8946 31.7242 23.7071C31.9007 23.5196 31.9999 23.2652 31.9999 23C31.9999 22.7348 31.9007 22.4804 31.7242 22.2929C31.5477 22.1054 31.3083 22 31.0587 22H8.47047C8.22086 22 7.98147 22.1054 7.80496 22.2929C7.62846 22.4804 7.5293 22.7348 7.5293 23C7.5293 23.2652 7.62846 23.5196 7.80496 23.7071C7.98147 23.8946 8.22086 24 8.47047 24ZM8.47047 32H31.0587C31.3083 32 31.5477 31.8946 31.7242 31.7071C31.9007 31.5196 31.9999 31.2652 31.9999 31C31.9999 30.7348 31.9007 30.4804 31.7242 30.2929C31.5477 30.1054 31.3083 30 31.0587 30H8.47047C8.22086 30 7.98147 30.1054 7.80496 30.2929C7.62846 30.4804 7.5293 30.7348 7.5293 31C7.5293 31.2652 7.62846 31.5196 7.80496 31.7071C7.98147 31.8946 8.22086 32 8.47047 32ZM8.47047 16H17.8822C18.1319 16 18.3712 15.8946 18.5478 15.7071C18.7243 15.5196 18.8234 15.2652 18.8234 15C18.8234 14.7348 18.7243 14.4804 18.5478 14.2929C18.3712 14.1054 18.1319 14 17.8822 14H8.47047C8.22086 14 7.98147 14.1054 7.80496 14.2929C7.62846 14.4804 7.5293 14.7348 7.5293 15C7.5293 15.2652 7.62846 15.5196 7.80496 15.7071C7.98147 15.8946 8.22086 16 8.47047 16ZM8.47047 40H31.0587C31.3083 40 31.5477 39.8946 31.7242 39.7071C31.9007 39.5196 31.9999 39.2652 31.9999 39C31.9999 38.7348 31.9007 38.4804 31.7242 38.2929C31.5477 38.1054 31.3083 38 31.0587 38H8.47047C8.22086 38 7.98147 38.1054 7.80496 38.2929C7.62846 38.4804 7.5293 38.7348 7.5293 39C7.5293 39.2652 7.62846 39.5196 7.80496 39.7071C7.98147 39.8946 8.22086 40 8.47047 40ZM8.47047 48H31.0587C31.3083 48 31.5477 47.8946 31.7242 47.7071C31.9007 47.5196 31.9999 47.2652 31.9999 47C31.9999 46.7348 31.9007 46.4804 31.7242 46.2929C31.5477 46.1054 31.3083 46 31.0587 46H8.47047C8.22086 46 7.98147 46.1054 7.80496 46.2929C7.62846 46.4804 7.5293 46.7348 7.5293 47C7.5293 47.2652 7.62846 47.5196 7.80496 47.7071C7.98147 47.8946 8.22086 48 8.47047 48Z" fill="black"/>
<path d="M40.4707 10H48.9413V21C48.9413 22.654 50.2081 24 51.7648 24H62.1178V61C62.1178 61.2652 62.0186 61.5196 61.8421 61.7071C61.6656 61.8946 61.4262 62 61.1766 62H27.3168C27.1917 62.0016 27.0676 61.977 26.9515 61.9276C26.8353 61.8782 26.7295 61.805 26.64 61.7121C26.5505 61.6192 26.4791 61.5086 26.4299 61.3864C26.3806 61.2642 26.3545 61.1329 26.3531 61V59C26.3531 58.7348 26.2539 58.4804 26.0774 58.2929C25.9009 58.1054 25.6615 58 25.4119 58C25.1623 58 24.9229 58.1054 24.7464 58.2929C24.5699 58.4804 24.4707 58.7348 24.4707 59V61C24.4707 62.654 25.7469 64 27.3168 64H61.1766C62.7333 64 64.0001 62.654 64.0001 61V23C64.0001 22.954 63.9813 22.914 63.9756 22.87C63.9704 22.8281 63.9622 22.7866 63.9512 22.746C63.9143 22.5755 63.835 22.4187 63.7215 22.292L50.5469 8.294C50.3987 8.14291 50.2073 8.04861 50.0029 8.026C49.9634 8.02 49.9258 8 49.8825 8H40.4707C40.2211 8 39.9817 8.10536 39.8052 8.29289C39.6287 8.48043 39.5295 8.73478 39.5295 9C39.5295 9.26522 39.6287 9.51957 39.8052 9.70711C39.9817 9.89464 40.2211 10 40.4707 10ZM51.7648 22C51.5152 22 51.2758 21.8946 51.0993 21.7071C50.9228 21.5196 50.8236 21.2652 50.8236 21V11.414L60.7869 22H51.7648Z" fill="black"/>
<path d="M44.2354 32H55.5295C55.7791 32 56.0185 31.8946 56.195 31.7071C56.3715 31.5196 56.4707 31.2652 56.4707 31C56.4707 30.7348 56.3715 30.4804 56.195 30.2929C56.0185 30.1054 55.7791 30 55.5295 30H44.2354C43.9858 30 43.7464 30.1054 43.5699 30.2929C43.3933 30.4804 43.2942 30.7348 43.2942 31C43.2942 31.2652 43.3933 31.5196 43.5699 31.7071C43.7464 31.8946 43.9858 32 44.2354 32ZM44.2354 40H55.5295C55.7791 40 56.0185 39.8946 56.195 39.7071C56.3715 39.5196 56.4707 39.2652 56.4707 39C56.4707 38.7348 56.3715 38.4804 56.195 38.2929C56.0185 38.1054 55.7791 38 55.5295 38H44.2354C43.9858 38 43.7464 38.1054 43.5699 38.2929C43.3933 38.4804 43.2942 38.7348 43.2942 39C43.2942 39.2652 43.3933 39.5196 43.5699 39.7071C43.7464 39.8946 43.9858 40 44.2354 40ZM44.2354 48H55.5295C55.7791 48 56.0185 47.8946 56.195 47.7071C56.3715 47.5196 56.4707 47.2652 56.4707 47C56.4707 46.7348 56.3715 46.4804 56.195 46.2929C56.0185 46.1054 55.7791 46 55.5295 46H44.2354C43.9858 46 43.7464 46.1054 43.5699 46.2929C43.3933 46.4804 43.2942 46.7348 43.2942 47C43.2942 47.2652 43.3933 47.5196 43.5699 47.7071C43.7464 47.8946 43.9858 48 44.2354 48ZM44.2354 56H55.5295C55.7791 56 56.0185 55.8946 56.195 55.7071C56.3715 55.5196 56.4707 55.2652 56.4707 55C56.4707 54.7348 56.3715 54.4804 56.195 54.2929C56.0185 54.1054 55.7791 54 55.5295 54H44.2354C43.9858 54 43.7464 54.1054 43.5699 54.2929C43.3933 54.4804 43.2942 54.7348 43.2942 55C43.2942 55.2652 43.3933 55.5196 43.5699 55.7071C43.7464 55.8946 43.9858 56 44.2354 56Z" fill="black"/>
</svg>
