<svg width="64" height="64" viewBox="0 0 64 64" fill="none" xmlns="http://www.w3.org/2000/svg">
<path d="M36.889 16.4444H26.6667V32.1066H36.9601C39.1402 32.2036 41.2705 31.4364 42.8882 29.9718C44.506 28.5072 45.4805 26.4634 45.6001 24.2844C45.5455 23.1968 45.2766 22.1306 44.8088 21.1472C44.3409 20.1638 43.6834 19.2825 42.8739 18.554C42.0644 17.8255 41.119 17.2641 40.0919 16.902C39.0648 16.54 37.9763 16.3845 36.889 16.4444Z" fill="black"/>
<path d="M32.0001 3.55566C26.3743 3.55566 20.8749 5.2239 16.1972 8.34942C11.5196 11.4749 7.87377 15.9173 5.72088 21.1149C3.56799 26.3124 3.00469 32.0317 4.10223 37.5493C5.19976 43.067 7.90884 48.1353 11.8869 52.1134C15.8649 56.0914 20.9332 58.8005 26.4509 59.898C31.9686 60.9955 37.6878 60.4322 42.8853 58.2793C48.0829 56.1265 52.5253 52.4807 55.6508 47.803C58.7763 43.1253 60.4446 37.6259 60.4446 32.0001C60.4446 24.4562 57.4477 17.2212 52.1134 11.8868C46.779 6.55248 39.5441 3.55566 32.0001 3.55566ZM36.889 36.5512H26.6668V39.1112H41.4046C41.8761 39.1112 42.3282 39.2985 42.6616 39.6319C42.995 39.9653 43.1823 40.4175 43.1823 40.889C43.1823 41.3605 42.995 41.8127 42.6616 42.1461C42.3282 42.4795 41.8761 42.6668 41.4046 42.6668H26.6668V51.5557C26.6668 52.145 26.4327 52.7103 26.0159 53.127C25.5992 53.5438 25.0339 53.7779 24.4446 53.7779C23.8552 53.7779 23.29 53.5438 22.8732 53.127C22.4565 52.7103 22.2223 52.145 22.2223 51.5557V42.6668H20.0001C19.5286 42.6668 19.0764 42.4795 18.743 42.1461C18.4096 41.8127 18.2223 41.3605 18.2223 40.889C18.2223 40.4175 18.4096 39.9653 18.743 39.6319C19.0764 39.2985 19.5286 39.1112 20.0001 39.1112H22.1512V36.5512H20.0001C19.4108 36.5512 18.8455 36.3171 18.4288 35.9003C18.012 35.4836 17.7779 34.9184 17.7779 34.329C17.7779 33.7396 18.012 33.1744 18.4288 32.7576C18.8455 32.3409 19.4108 32.1068 20.0001 32.1068H22.1512V14.2223C22.1512 13.633 22.3854 13.0677 22.8021 12.651C23.2189 12.2342 23.7841 12.0001 24.3735 12.0001H36.8179C40.1789 11.8947 43.4443 13.1271 45.8975 15.4269C48.3506 17.7268 49.791 20.906 49.9023 24.2668C49.7908 27.6164 48.3609 30.7865 45.9238 33.0871C43.4866 35.3877 40.2395 36.6328 36.889 36.5512Z" fill="black"/>
</svg>
