<svg width="64" height="64" viewBox="0 0 64 64" fill="none" xmlns="http://www.w3.org/2000/svg">
<path d="M32 2C15.432 2 2 15.432 2 32C2 48.568 15.432 62 32 62C48.568 62 62 48.568 62 32C62 15.432 48.568 2 32 2ZM28.883 17.25C33.264 17.25 37.194 19.205 39.867 22.299C37.9236 20.9319 35.6051 20.1988 33.229 20.2C26.785 20.2 21.561 25.483 21.561 32C21.561 38.517 26.785 43.8 33.229 43.8C35.695 43.8 37.982 43.025 39.867 41.703C37.193 44.795 33.263 46.75 28.883 46.75C20.828 46.75 14.3 40.147 14.3 32C14.3 23.854 20.828 17.25 28.883 17.25M49.7 36.254L44.437 34.616L41.191 38.884L41.203 33.617L35.934 32L41.204 30.383L41.192 25.117L44.438 29.384L49.701 27.746L46.436 32L49.7 36.254Z" fill="black"/>
</svg>
